Fight Card
Junior dos Santos vs. Roy Nelson
Matt Hughes vs. Ricardo Almeida
Clay Guida vs. Rafael Dos Anjos
Jon Fitch vs. Thiago Alves 
Anderson Silva vs. Chael Sonnen

      Format : Matroska
      File size : 6.55 GiB
      Duration : 2h 58mn
      Overall bit rate : 5 261 Kbps
      Encoded date : UTC 2010-08-08 12:20:15
      Writing application : mkvmerge v4.1.1 (\'Bouncin\' Back\') built on Jul  3 2010 22:54:08
      Writing library : libebml v1.0.0 + libmatroska v1.0.0
   Video #1
      ID : 1
      Format : AVC
      Format/Info : Advanced Video Codec
      Format profile : High@L3.1
      Format settings, CABAC : Yes
      Format settings, ReFrames : 5 frames
      Muxing mode : Container profile=Unknown@3.1
      Codec ID : V_MPEG4/ISO/AVC
      Duration : 2h 58mn
      Bit rate : 4 772 Kbps
      Nominal bit rate : 4 876 Kbps
      Width : 1 280 pixels
      Height : 720 pixels
      Display aspect ratio : 16:9
      Frame rate : 29.970 fps
      Resolution : 24 bits
      Colorimetry : 4:2:0
      Scan type : Progressive
      Bits/(Pixel*Frame) : 0.173
      Stream size : 5.94 GiB (91%)
      Writing library : x264 core 102 r1666 d058f37
      Encoding settings : cabac=1 / ref=5 / deblock=1:-2:-1 / analyse=0x3:0x113 / me=umh / subme=8 / psy=1 / psy_rd=1.00:0.00 / mixed_ref=0 / me_range=16 / chroma_me=1 / trellis=1 / 8x8dct=1 / cqm=0 / deadzone=21,11 / fast_pskip=1 / chroma_qp_offset=-2 / threads=20 / sliced_threads=0 / nr=0 / decimate=1 / interlaced=0 / constrained_intra=0 / bframes=3 / b_pyramid=2 / b_adapt=1 / b_bias=0 / direct=1 / weightb=1 / open_gop=0 / weightp=2 / keyint=250 / keyint_min=25 / scenecut=40 / intra_refresh=0 / rc_lookahead=40 / rc=2pass / mbtree=1 / bitrate=4876 / ratetol=1.0 / qcomp=0.60 / qpmin=10 / qpmax=51 / qpstep=4 / cplxblur=20.0 / qblur=0.5 / ip_ratio=1.40 / aq=1:1.00
   Audio #2
      ID : 2
      Format : AC-3
      Format/Info : Audio Coding 3
      Codec ID : A_AC3
      Duration : 2h 58mn
      Bit rate mode : Constant
      Bit rate : 384 Kbps
      Channel(s) : 6 channels
      Channel positions : Front: L C R, Surround: L R, LFE
      Sampling rate : 48.0 KHz
      Stream size : 490 MiB (7%)

Screens

